<svg xmlns="http://www.w3.org/2000/svg" width="256.013" height="219.547" viewBox="0 0 192.01 164.66" class="displayed_equation">
  <defs>
    <clipPath id="svg548191831039tikz_00001a">
      <path d="M 46.261719 34.84375 L 145.558594 34.84375 L 145.558594 131.46875 L 46.261719 131.46875 Z M 46.261719 34.84375" />
    </clipPath>
    <clipPath id="svg548191831039tikz_00001b">
      <path d="M 92 79 L 100 79 L 100 131.46875 L 92 131.46875 Z M 92 79" />
    </clipPath>
    <clipPath id="svg548191831039tikz_00001c">
      <path d="M 92 34.84375 L 100 34.84375 L 100 88 L 92 88 Z M 92 34.84375" />
    </clipPath>
    <clipPath id="svg548191831039tikz_00001d">
      <path d="M 46.261719 79 L 145.558594 79 L 145.558594 88 L 46.261719 88 Z M 46.261719 79" />
    </clipPath>
  </defs>
  <path d="M 144.628906 83.535156 L 101.492188 89.15625 L 95.835938 83.417969 Z M 144.628906 83.535156" />
  <path d="M 144.628906 83.535156 L 95.835938 83.417969 L 95.835938 83.414063 L 101.589844 75.78125 Z M 144.628906 83.535156" fill="#fff" />
  <path d="M 95.949219 35.617188 L 101.589844 75.78125 L 95.835938 83.414063 Z M 95.949219 35.617188" />
  <path d="M 101.492188 89.15625 L 95.726563 130.722656 L 95.835938 83.417969 Z M 101.492188 89.15625" fill="#fff" />
  <path d="M 95.835938 83.417969 L 95.726563 130.722656 L 88.597656 90.546875 Z M 95.835938 83.417969" />
  <path d="M95.949219 35.617188L95.835938 83.414063 95.835938 83.417969 87.714844 76.667969zM95.835938 83.417969L88.597656 90.546875 47.042969 83.296875zM95.835938 83.417969" fill="#fff" />
  <path d="M 95.835938 83.417969 L 47.042969 83.296875 L 87.714844 76.667969 Z M 95.835938 83.417969" />
  <g clip-path="url(#svg548191831039tikz_00001a)">
    <path d="M 877.148438 879.920312 L 959.492188 1290.428125 L 1015.898438 888.7875 L 1446.289063 811.248437 L 1014.921875 755.0375 L 957.265625 339.373437 L 885.976563 741.13125 L 470.429688 813.63125 Z M 877.148438 879.920312" transform="matrix(.1 0 0 -.1 0 164.66)" fill="none" stroke-width="2.602" stroke="#000" stroke-miterlimit="10" />
  </g>
  <g clip-path="url(#svg548191831039tikz_00001b)">
    <path d="M 958.359375 812.420312 L 957.265625 339.373437" transform="matrix(.1 0 0 -.1 0 164.66)" fill="none" stroke-width="2.602" stroke="#000" stroke-miterlimit="10" />
  </g>
  <g clip-path="url(#svg548191831039tikz_00001c)">
    <path d="M 959.492188 1290.428125 L 958.359375 812.459375" transform="matrix(.1 0 0 -.1 0 164.66)" fill="none" stroke-width="2.602" stroke="#000" stroke-miterlimit="10" />
  </g>
  <g clip-path="url(#svg548191831039tikz_00001d)">
    <path d="M 1446.289063 811.248437 L 958.359375 812.420312 L 470.429688 813.63125" transform="matrix(.1 0 0 -.1 0 164.66)" fill="none" stroke-width="2.602" stroke="#000" stroke-miterlimit="10" />
  </g>
  <path d="M 877.148438 879.920312 L 958.359375 812.420312 L 1014.921875 755.0375" transform="matrix(.1 0 0 -.1 0 164.66)" fill="none" stroke-width="2.602" stroke="#000" stroke-miterlimit="10" />
  <path d="M 1015.898438 888.7875 L 958.359375 812.459375 L 958.359375 812.420312 L 885.976563 741.13125" transform="matrix(.1 0 0 -.1 0 164.66)" fill="none" stroke-width="2.602" stroke="#000" stroke-miterlimit="10" />
  <path d="M 170.429688 84.761719 C 170.164063 84.761719 169.878906 84.71875 169.546875 84.636719 C 169.203125 84.527344 168.964844 84.457031 168.789063 84.347656 C 168.632813 84.445313 168.472656 84.574219 168.222656 84.648438 C 167.96875 84.695313 167.699219 84.761719 167.398438 84.761719 C 167.324219 84.761719 167.289063 84.722656 167.289063 84.648438 L 167.289063 83.851563 C 167.257813 83.746094 167.324219 83.738281 167.398438 83.738281 C 167.648438 83.714844 167.855469 83.71875 168.019531 83.671875 C 168.175781 83.621094 168.339844 83.546875 168.484375 83.433594 C 168.570313 83.316406 168.683594 83.261719 168.738281 83.191406 C 168.78125 83.113281 168.945313 82.882813 169.199219 82.464844 C 169.277344 82.320313 169.414063 82.246094 169.609375 82.246094 C 169.726563 82.21875 169.839844 82.28125 169.9375 82.347656 C 169.648438 82.996094 169.472656 83.433594 169.382813 83.570313 C 169.421875 83.597656 169.59375 83.636719 169.8125 83.675781 C 170.03125 83.714844 170.289063 83.738281 170.574219 83.738281 C 170.96875 83.714844 171.34375 83.695313 171.628906 83.601563 C 171.671875 83.503906 171.730469 83.390625 171.785156 83.222656 C 171.980469 82.441406 172.167969 81.992188 172.257813 81.808594 C 172.328125 81.609375 172.433594 81.511719 172.519531 81.460938 C 172.597656 81.410156 172.699219 81.382813 172.804688 81.382813 C 172.921875 81.375 173.023438 81.417969 173.117188 81.480469 C 172.980469 81.753906 172.789063 82.328125 172.535156 83.183594 L 172.875 83.328125 C 173.457031 83.558594 174.15625 83.707031 174.898438 83.707031 C 174.753906 83.285156 174.617188 82.808594 174.390625 82.234375 C 174.183594 81.75 174.125 81.476563 174.125 81.332031 C 174.117188 81.109375 174.203125 80.9375 174.359375 80.738281 C 174.496094 80.515625 174.734375 80.363281 175.007813 80.207031 C 175.046875 80.460938 175.152344 80.988281 175.328125 81.738281 C 175.453125 82.300781 175.53125 82.785156 175.53125 83.113281 C 175.519531 83.25 175.476563 83.519531 175.367188 83.871094 C 175.234375 84.214844 175.140625 84.515625 175.015625 84.761719 C 174.433594 84.761719 173.941406 84.71875 173.523438 84.640625 C 173.097656 84.53125 172.65625 84.40625 172.175781 84.183594 L 172.058594 84.402344 C 171.980469 84.484375 171.832031 84.578125 171.550781 84.644531 C 171.253906 84.683594 170.894531 84.75 170.429688 84.761719 Z M 171.945313 80.335938 Z M 171.90625 85.152344 Z M 171.90625 85.453125 Z M 172.667969 78.515625 C 172.390625 78.796875 172.183594 79.039063 171.976563 79.183594 C 171.703125 79.023438 171.476563 78.808594 171.21875 78.515625 C 171.480469 78.238281 171.726563 78.011719 171.9375 77.777344 C 172.089844 77.992188 172.347656 78.246094 172.667969 78.515625 Z M 171.734375 79.628906 C 171.566406 79.847656 171.339844 80.144531 171.023438 80.449219 C 170.664063 80.144531 170.40625 79.929688 170.21875 79.71875 C 170.425781 79.5 170.691406 79.246094 170.996094 78.902344 C 171.058594 78.988281 171.339844 79.242188 171.734375 79.628906 Z M 173.648438 79.457031 C 173.464844 79.683594 173.242188 79.992188 172.929688 80.28125 C 172.609375 80.027344 172.359375 79.789063 172.140625 79.542969 C 172.289063 79.367188 172.558594 79.121094 172.910156 78.722656 Z M 171.945313 80.28125 Z M 171.9375 77.449219 L 171.9375 77.449219" />
  <path d="M167.542969 84.761719C167.109375 84.761719 166.761719 84.652344 166.453125 84.433594 166.28125 85.34375 165.953125 86.109375 165.414063 86.664063 164.871094 87.214844 164.238281 87.496094 163.496094 87.496094 163.25 87.484375 162.988281 87.410156 162.617188 87.242188 162.242188 87.046875 161.957031 86.910156 161.742188 86.742188L161.925781 86.296875C162.40625 86.386719 162.835938 86.449219 163.1875 86.449219 163.828125 86.417969 164.433594 86.246094 164.90625 85.847656 165.382813 85.421875 165.746094 84.867188 166.003906 84.105469 165.882813 83.804688 165.746094 83.535156 165.59375 83.261719 165.25 82.71875 165.054688 82.285156 164.914063 81.957031 164.765625 81.59375 164.699219 81.351563 164.699219 81.128906 164.699219 80.878906 164.769531 80.71875 164.90625 80.582031 165.039063 80.4375 165.234375 80.316406 165.476563 80.191406 165.519531 80.425781 165.632813 80.707031 165.746094 81.003906 166.015625 81.734375 166.222656 82.289063 166.320313 82.628906 166.410156 82.941406 166.476563 83.242188 166.496094 83.472656 166.765625 83.648438 167.148438 83.738281 167.542969 83.738281 167.601563 83.714844 167.65625 83.777344 167.65625 83.851563L167.65625 84.648438C167.636719 84.695313 167.617188 84.761719 167.542969 84.761719zM164.828125 79.539063zM163.554688 88.148438L163.554688 88.148438M160.800781 85.441406C160.789063 84.859375 160.738281 84.390625 160.65625 83.957031L160.589844 84.015625C160.027344 84.492188 159.46875 84.761719 158.816406 84.761719 158.304688 84.761719 157.902344 84.601563 157.597656 84.285156 157.261719 83.960938 157.144531 83.550781 157.144531 83.03125 157.128906 82.554688 157.234375 82.128906 157.417969 81.683594 157.597656 81.230469 157.84375 80.882813 158.140625 80.613281 158.421875 80.324219 158.734375 80.207031 159.035156 80.207031 159.445313 80.191406 159.859375 80.394531 160.246094 80.777344 160.617188 81.148438 160.9375 81.652344 161.15625 82.265625 161.359375 82.875 161.488281 83.527344 161.488281 84.210938 161.457031 84.757813 161.375 85.292969 161.152344 85.773438 160.914063 86.25 160.609375 86.679688 160.183594 87.050781 159.734375 87.390625 159.265625 87.714844 158.695313 87.9375 158.097656 88.132813 157.585938 88.269531 157.066406 88.269531 156.207031 88.265625 155.574219 88.046875 155.109375 87.605469 154.640625 87.152344 154.410156 86.546875 154.410156 85.746094 154.40625 85.460938 154.425781 85.246094 154.457031 85.019531 154.472656 84.769531 154.5625 84.457031 154.671875 84.015625L155.164063 84.132813C155.039063 84.5 155.011719 84.84375 155.011719 85.085938 155.007813 85.75 155.1875 86.273438 155.546875 86.628906 155.890625 86.960938 156.421875 87.160156 157.097656 87.160156 157.53125 87.160156 158.046875 87.089844 158.539063 86.945313 159.023438 86.773438 159.480469 86.597656 159.882813 86.339844 160.253906 86.054688 160.585938 85.78125 160.800781 85.441406zM158.824219 81.34375C158.632813 81.316406 158.460938 81.414063 158.28125 81.554688 158.070313 81.664063 157.949219 81.867188 157.835938 82.078125 157.707031 82.28125 157.660156 82.480469 157.660156 82.660156 157.640625 82.984375 157.789063 83.230469 158.046875 83.40625 158.289063 83.566406 158.667969 83.667969 159.140625 83.667969 159.582031 83.664063 160.050781 83.5625 160.507813 83.355469 160.386719 82.925781 160.238281 82.601563 160.050781 82.289063 159.847656 81.964844 159.664063 81.738281 159.441406 81.582031 159.207031 81.417969 159.015625 81.34375 158.824219 81.34375zM158.773438 79.554688zM153.945313 88.273438zM157.394531 88.921875zM158.5625 78.601563C158.378906 78.84375 158.136719 79.164063 157.773438 79.515625 157.347656 79.175781 157.074219 78.921875 156.882813 78.699219 157.089844 78.46875 157.40625 78.179688 157.746094 77.796875 157.835938 77.894531 158.121094 78.171875 158.5625 78.601563zM160.582031 78.410156C160.390625 78.660156 160.148438 78.984375 159.777344 79.328125 159.371094 79.003906 159.105469 78.75 158.894531 78.503906 158.960938 78.402344 159.277344 78.117188 159.757813 77.601563 159.84375 77.699219 160.136719 77.984375 160.582031 78.410156zM158.777344 79.644531zM158.714844 77.273438zM158.777344 79.515625L158.777344 79.515625M34.898438 85.460938C34.828125 85.460938 34.789063 85.421875 34.789063 85.347656L34.789063 84.550781C34.757813 84.445313 34.828125 84.441406 34.898438 84.441406 35.476563 84.414063 36.03125 84.425781 36.570313 84.402344 36.332031 84.246094 36.167969 84.070313 36.007813 83.824219 35.847656 83.558594 35.769531 83.320313 35.769531 83.046875 35.746094 82.636719 35.875 82.265625 36.082031 81.847656 36.261719 81.398438 36.554688 81.089844 36.882813 80.832031 37.183594 80.550781 37.550781 80.449219 37.910156 80.449219 38.214844 80.417969 38.515625 80.523438 38.800781 80.679688 39.082031 80.828125 39.414063 81.078125 39.789063 81.402344L39.550781 81.828125C39.179688 81.671875 38.941406 81.609375 38.78125 81.574219 38.589844 81.535156 38.441406 81.519531 38.25 81.519531 37.683594 81.5 37.125 81.683594 36.53125 82.011719 36.519531 82.378906 36.621094 82.746094 36.808594 83.0625 36.992188 83.378906 37.261719 83.632813 37.617188 83.824219 37.964844 83.996094 38.386719 84.125 38.867188 84.152344 39.183594 84.050781 39.53125 83.996094 39.839844 83.898438 40.136719 83.789063 40.582031 83.644531 41.140625 83.425781 41.25 83.515625 41.324219 83.699219 41.324219 83.902344L41.3125 84.039063C41.253906 84.3125 41.074219 84.53125 40.753906 84.609375 39.671875 84.859375 38.886719 85.058594 38.339844 85.15625 37.78125 85.222656 37.234375 85.328125 36.664063 85.382813 36.070313 85.425781 35.503906 85.460938 34.898438 85.460938zM37.773438 79.796875zM38.625 85.851563zM38.625 86.152344zM38.652344 78.65625C38.425781 78.925781 38.15625 79.285156 37.789063 79.636719 37.363281 79.296875 37.070313 79.03125 36.828125 78.765625 37.277344 78.304688 37.597656 77.980469 37.761719 77.785156 38.027344 78.085938 38.34375 78.382813 38.652344 78.65625zM37.789063 79.769531zM37.761719 77.457031L37.761719 77.457031" />
  <path d="M34.945313 85.460938C34.511719 85.460938 34.164063 85.351563 33.851563 85.132813 33.683594 86.042969 33.355469 86.808594 32.816406 87.363281 32.273438 87.917969 31.636719 88.195313 30.894531 88.195313 30.648438 88.183594 30.390625 88.109375 30.019531 87.941406 29.640625 87.746094 29.355469 87.609375 29.140625 87.441406L29.324219 86.996094C29.804688 87.085938 30.234375 87.148438 30.585938 87.148438 31.230469 87.117188 31.832031 86.949219 32.308594 86.550781 32.78125 86.121094 33.148438 85.570313 33.402344 84.804688 33.28125 84.503906 33.148438 84.238281 32.996094 83.960938 32.648438 83.421875 32.453125 82.984375 32.3125 82.65625 32.167969 82.292969 32.101563 82.050781 32.101563 81.828125 32.101563 81.578125 32.167969 81.417969 32.304688 81.28125 32.441406 81.136719 32.632813 81.015625 32.878906 80.894531 32.917969 81.125 33.03125 81.40625 33.148438 81.703125 33.414063 82.433594 33.621094 82.992188 33.71875 83.328125 33.808594 83.640625 33.875 83.945313 33.898438 84.171875 34.167969 84.347656 34.546875 84.441406 34.945313 84.441406 35.003906 84.414063 35.054688 84.476563 35.054688 84.550781L35.054688 85.347656C35.035156 85.394531 35.019531 85.460938 34.945313 85.460938zM32.230469 80.238281zM30.953125 88.847656L30.953125 88.847656M23.40625 85.460938C22.351563 85.460938 21.546875 85.269531 20.984375 84.890625 20.390625 84.5 20.136719 83.941406 20.136719 83.175781 20.125 82.617188 20.195313 82.132813 20.320313 81.703125L20.796875 81.703125C20.753906 81.726563 20.777344 81.832031 20.765625 81.980469 20.734375 82.121094 20.75 82.257813 20.75 82.363281 20.734375 82.882813 20.847656 83.285156 21.042969 83.570313 21.226563 83.851563 21.554688 84.070313 21.984375 84.21875 22.386719 84.347656 22.980469 84.441406 23.6875 84.441406 24.492188 84.414063 25.332031 84.355469 26.125 84.183594 26.914063 84.007813 27.625 83.78125 28.242188 83.492188 28.132813 83.109375 27.984375 82.628906 27.757813 82.019531 27.566406 81.546875 27.5 81.265625 27.5 81.121094 27.5 80.910156 27.578125 80.734375 27.730469 80.535156 27.871094 80.308594 28.101563 80.152344 28.382813 79.992188 28.394531 80.242188 28.472656 80.511719 28.527344 80.769531 28.574219 81.023438 28.640625 81.28125 28.691406 81.527344 28.714844 81.753906 28.789063 82.015625 28.828125 82.246094 28.855469 82.449219 28.882813 82.695313 28.882813 82.902344 28.855469 83.199219 28.726563 83.664063 28.417969 84.261719 27.824219 84.640625 27.109375 84.9375 26.261719 85.144531 25.394531 85.328125 24.460938 85.460938 23.40625 85.460938zM24.09375 80.121094zM24.265625 85.851563zM24.265625 86.152344zM25.121094 87.175781C24.90625 87.472656 24.625 87.804688 24.261719 88.15625 23.855469 87.824219 23.554688 87.566406 23.296875 87.28125 23.667969 86.878906 24.011719 86.558594 24.234375 86.300781 24.53125 86.621094 24.839844 86.925781 25.121094 87.175781zM24.226563 87.28125zM24.234375 86.167969zM24.261719 88.289063zM24.234375 85.972656L24.234375 85.972656M104.730469 25.460938C104.464844 25.460938 104.179688 25.417969 103.847656 25.335938 103.503906 25.226563 103.265625 25.15625 103.089844 25.046875 102.929688 25.144531 102.773438 25.273438 102.523438 25.347656 102.269531 25.394531 102 25.460938 101.699219 25.460938 101.625 25.460938 101.589844 25.421875 101.589844 25.347656L101.589844 24.550781C101.558594 24.445313 101.625 24.441406 101.699219 24.441406 101.949219 24.414063 102.15625 24.417969 102.320313 24.371094 102.476563 24.320313 102.636719 24.246094 102.785156 24.132813 102.871094 24.015625 102.984375 23.960938 103.039063 23.894531 103.078125 23.8125 103.246094 23.582031 103.5 23.164063 103.578125 23.019531 103.714844 22.945313 103.910156 22.945313 104.023438 22.917969 104.136719 22.980469 104.238281 23.046875 103.945313 23.695313 103.773438 24.132813 103.683594 24.269531 103.722656 24.296875 103.890625 24.335938 104.113281 24.378906 104.332031 24.414063 104.589844 24.441406 104.871094 24.441406 105.269531 24.414063 105.644531 24.394531 105.925781 24.300781 105.96875 24.203125 106.03125 24.09375 106.085938 23.921875 106.28125 23.140625 106.46875 22.691406 106.558594 22.511719 106.628906 22.308594 106.734375 22.210938 106.820313 22.160156 106.898438 22.109375 106.996094 22.082031 107.101563 22.082031 107.21875 22.074219 107.324219 22.117188 107.417969 22.183594 107.28125 22.453125 107.089844 23.027344 106.835938 23.882813L107.175781 24.027344C107.757813 24.257813 108.453125 24.40625 109.195313 24.40625 109.054688 23.984375 108.917969 23.511719 108.691406 22.933594 108.484375 22.453125 108.425781 22.175781 108.425781 22.03125 108.414063 21.8125 108.503906 21.636719 108.660156 21.441406 108.796875 21.214844 109.03125 21.0625 109.308594 20.90625 109.34375 21.160156 109.453125 21.6875 109.628906 22.4375 109.753906 23 109.832031 23.484375 109.832031 23.8125 109.820313 23.949219 109.777344 24.222656 109.667969 24.570313 109.535156 24.914063 109.441406 25.214844 109.3125 25.460938 108.734375 25.460938 108.242188 25.421875 107.824219 25.339844 107.398438 25.230469 106.953125 25.105469 106.476563 24.882813L106.359375 25.101563C106.28125 25.183594 106.132813 25.277344 105.851563 25.347656 105.554688 25.386719 105.195313 25.453125 104.730469 25.460938zM106.246094 21.035156zM106.207031 25.851563zM106.207031 26.152344zM106.96875 19.214844C106.6875 19.496094 106.480469 19.738281 106.277344 19.882813 106.003906 19.722656 105.777344 19.507813 105.519531 19.214844 105.78125 18.9375 106.027344 18.710938 106.238281 18.476563 106.390625 18.695313 106.648438 18.945313 106.96875 19.214844zM106.035156 20.328125C105.867188 20.550781 105.640625 20.847656 105.320313 21.152344 104.964844 20.847656 104.703125 20.632813 104.515625 20.417969 104.726563 20.199219 104.988281 19.945313 105.296875 19.601563 105.359375 19.6875 105.636719 19.945313 106.035156 20.328125zM107.949219 20.15625C107.761719 20.386719 107.539063 20.691406 107.230469 20.980469 106.910156 20.730469 106.65625 20.488281 106.441406 20.242188 106.589844 20.066406 106.859375 19.820313 107.210938 19.425781zM106.242188 20.980469zM106.238281 18.148438L106.238281 18.148438" />
  <path d="M 96.199219 25.460938 C 96.125 25.460938 96.089844 25.421875 96.089844 25.347656 L 96.089844 24.550781 C 96.058594 24.445313 96.125 24.441406 96.199219 24.441406 C 96.496094 24.414063 96.789063 24.394531 97.078125 24.300781 C 96.980469 24.160156 96.972656 24.039063 96.972656 23.890625 C 96.949219 23.507813 97.109375 23.085938 97.382813 22.589844 C 97.628906 22.082031 97.984375 21.6875 98.367188 21.375 C 98.730469 21.058594 99.125 20.90625 99.476563 20.90625 C 99.601563 20.890625 99.761719 20.992188 99.882813 21.167969 C 99.976563 21.339844 100.125 21.558594 100.238281 21.820313 C 100.339844 22.0625 100.460938 22.367188 100.570313 22.671875 C 100.65625 22.972656 100.796875 23.261719 100.921875 23.523438 C 101.039063 23.765625 101.179688 24.003906 101.320313 24.179688 C 101.457031 24.347656 101.628906 24.441406 101.8125 24.441406 C 101.90625 24.414063 101.964844 24.484375 101.964844 24.578125 L 101.964844 25.316406 C 101.941406 25.394531 101.914063 25.460938 101.8125 25.460938 C 101.355469 25.460938 100.953125 25.265625 100.589844 24.871094 L 100.425781 25.460938 C 99.5625 25.460938 98.804688 25.328125 98.125 25.066406 L 98.089844 25.0625 C 97.632813 25.21875 97.3125 25.324219 97.039063 25.378906 C 96.75 25.425781 96.484375 25.460938 96.199219 25.460938 Z M 99.503906 21.933594 C 99.167969 22.058594 98.8125 22.328125 98.441406 22.667969 C 98.054688 23.007813 97.8125 23.328125 97.679688 23.621094 C 98.230469 24.089844 99.144531 24.414063 100.335938 24.53125 C 100.132813 24.222656 99.96875 23.871094 99.816406 23.40625 C 99.660156 22.929688 99.5625 22.453125 99.503906 21.933594 Z M 98.8125 20.253906 Z M 99.699219 25.851563 Z M 99.4375 26.285156 L 99.4375 26.285156" />
  <path d="M96.417969 24.550781L96.417969 25.347656C96.414063 25.394531 96.382813 25.460938 96.308594 25.460938 95.777344 25.460938 95.34375 25.355469 94.996094 25.148438 94.617188 24.910156 94.453125 24.65625 94.410156 24.296875 94.261719 23.140625 94.113281 21.386719 93.953125 19.003906L93.820313 17.21875C94.0625 16.945313 94.371094 16.714844 94.722656 16.472656 94.777344 17.828125 94.832031 19.757813 94.867188 22.246094L94.914063 24.09375C95.328125 24.3125 95.796875 24.441406 96.308594 24.441406 96.378906 24.414063 96.417969 24.476563 96.417969 24.550781zM94.320313 15.816406zM95.125 26.152344L95.125 26.152344M91.4375 26.1875L91.101563 24.019531C90.71875 21.730469 90.46875 20.171875 90.351563 19.28125 90.214844 18.382813 90.171875 17.800781 90.171875 17.519531 90.148438 17.195313 90.238281 16.984375 90.378906 16.816406 90.492188 16.632813 90.742188 16.535156 91.046875 16.472656 91.042969 16.523438 91.074219 16.582031 91.085938 16.628906 91.070313 16.652344 91.246094 17.15625 91.523438 18.0625L91.210938 18.335938 91.238281 18.546875 91.675781 22.515625C91.824219 23.828125 91.9375 24.902344 91.9375 25.683594 91.925781 26.230469 91.765625 26.765625 91.421875 27.265625 91.070313 27.765625 90.601563 28.175781 90 28.492188 89.398438 28.796875 88.777344 28.96875 88.136719 28.96875 87.359375 28.964844 86.777344 28.746094 86.351563 28.308594 85.90625 27.855469 85.710938 27.25 85.710938 26.445313 85.707031 26.160156 85.726563 25.945313 85.757813 25.71875 85.773438 25.46875 85.863281 25.15625 85.972656 24.714844L86.460938 24.832031C86.339844 25.199219 86.3125 25.542969 86.3125 25.785156 86.308594 26.433594 86.472656 26.949219 86.800781 27.316406 87.128906 27.660156 87.585938 27.863281 88.171875 27.863281 88.570313 27.859375 89.03125 27.785156 89.492188 27.636719 89.917969 27.464844 90.351563 27.285156 90.699219 27.03125 91.046875 26.75 91.296875 26.492188 91.4375 26.1875zM90.148438 15.816406zM85.246094 28.972656zM87.882813 19.121094zM88.921875 29.621094L88.921875 29.621094M103.699219 145.558594C103.625 145.558594 103.589844 145.523438 103.589844 145.449219L103.589844 144.652344C103.558594 144.546875 103.625 144.539063 103.699219 144.539063 105.011719 144.511719 106.042969 144.425781 106.796875 144.199219L107.539063 143.945313C108.03125 143.722656 108.496094 143.621094 108.886719 143.550781 108.511719 143.347656 108.195313 143.15625 107.855469 142.882813 107.476563 142.59375 107.199219 142.402344 106.976563 142.292969 106.726563 142.171875 106.519531 142.125 106.285156 142.125 105.828125 142.105469 105.472656 142.234375 105.132813 142.453125L104.820313 142.648438C104.679688 142.488281 104.621094 142.34375 104.621094 142.125 104.613281 141.765625 104.769531 141.519531 105.066406 141.3125 105.339844 141.089844 105.753906 141.003906 106.238281 141.003906 106.507813 140.992188 106.808594 141.066406 107.097656 141.191406 107.355469 141.300781 107.726563 141.511719 108.109375 141.792969 108.574219 142.125 108.972656 142.394531 109.300781 142.566406 109.628906 142.738281 109.957031 142.863281 110.292969 142.9375 110.597656 142.984375 111.117188 143.046875 111.757813 143.046875L111.246094 144.035156C110.953125 143.976563 110.71875 143.976563 110.496094 143.964844L110.453125 143.957031 110.175781 143.964844C109.839844 143.960938 109.570313 144.007813 109.289063 144.101563 108.976563 144.179688 108.570313 144.390625 107.980469 144.695313 107.285156 145.027344 106.710938 145.269531 106.171875 145.386719 105.609375 145.492188 104.808594 145.558594 103.699219 145.558594zM108.019531 140.355469zM107.980469 145.953125zM107.980469 146.253906zM108.820313 147.277344C108.605469 147.570313 108.328125 147.902344 107.960938 148.257813 107.554688 147.925781 107.253906 147.664063 106.996094 147.378906 107.367188 146.980469 107.710938 146.660156 107.933594 146.398438 108.230469 146.722656 108.539063 147.027344 108.820313 147.277344zM107.929688 147.378906zM107.933594 146.269531zM107.960938 148.386719zM107.933594 146.074219L107.933594 146.074219" />
  <path d="M 99.800781 145.558594 C 99.726563 145.558594 99.6875 145.523438 99.6875 145.449219 L 99.6875 144.652344 C 99.660156 144.546875 99.726563 144.539063 99.800781 144.539063 C 100.128906 144.511719 100.40625 144.507813 100.644531 144.445313 C 100.863281 144.351563 101.0625 144.289063 101.195313 144.167969 C 101.292969 144.046875 101.535156 143.710938 101.820313 143.160156 L 102.058594 142.726563 C 102.117188 142.5625 102.273438 142.511719 102.46875 142.511719 C 102.570313 142.496094 102.699219 142.546875 102.796875 142.617188 C 102.574219 143.070313 102.390625 143.558594 102.148438 144.035156 C 102.441406 144.199219 102.738281 144.355469 102.988281 144.429688 C 103.210938 144.480469 103.519531 144.539063 103.832031 144.539063 C 103.894531 144.511719 103.941406 144.578125 103.941406 144.652344 L 103.941406 145.449219 C 103.929688 145.492188 103.90625 145.558594 103.832031 145.558594 C 102.992188 145.558594 102.296875 145.296875 101.71875 144.773438 L 101.496094 145.070313 C 101.371094 145.179688 101.1875 145.292969 100.851563 145.402344 C 100.5 145.492188 100.164063 145.558594 99.800781 145.558594 Z M 101.78125 141.855469 Z M 102.070313 145.953125 Z M 102.070313 146.253906 Z M 102.652344 140.753906 C 102.425781 141.023438 102.15625 141.382813 101.789063 141.734375 C 101.363281 141.398438 101.070313 141.132813 100.828125 140.863281 C 101.277344 140.40625 101.597656 140.082031 101.761719 139.886719 C 102.027344 140.1875 102.34375 140.484375 102.652344 140.753906 Z M 101.789063 141.867188 Z M 101.761719 139.558594 L 101.761719 139.558594" />
  <path d="M96.085938 148.28125C95.769531 148.273438 95.429688 148.191406 94.984375 148.011719 94.511719 147.8125 94.199219 147.632813 93.957031 147.425781L94.148438 146.988281C94.609375 147.144531 95.171875 147.234375 95.777344 147.234375 96.304688 147.210938 96.824219 147.097656 97.25 146.824219 97.664063 146.53125 98.042969 146.125 98.335938 145.539063 97.449219 145.484375 96.808594 145.4375 96.375 145.316406 95.917969 145.179688 95.621094 145.015625 95.417969 144.757813 95.207031 144.46875 95.109375 144.15625 95.109375 143.722656 95.105469 143.246094 95.199219 142.820313 95.382813 142.375 95.539063 141.925781 95.808594 141.570313 96.101563 141.300781 96.398438 141.015625 96.699219 140.894531 97 140.894531 97.367188 140.882813 97.707031 141.0625 98.027344 141.394531 98.335938 141.714844 98.601563 142.179688 98.796875 142.757813 98.960938 143.300781 99.09375 143.910156 99.09375 144.480469L99.09375 144.539063 99.890625 144.539063C99.933594 144.511719 100.003906 144.578125 100.003906 144.652344L100.003906 145.449219C100 145.492188 99.964844 145.558594 99.890625 145.558594L98.949219 145.558594C98.800781 146.070313 98.609375 146.539063 98.320313 146.964844 98.023438 147.386719 97.691406 147.714844 97.300781 147.941406 96.914063 148.140625 96.507813 148.28125 96.085938 148.28125zM96.789063 142.035156C96.578125 142.007813 96.421875 142.105469 96.238281 142.246094 96.039063 142.359375 95.902344 142.5625 95.789063 142.773438 95.648438 142.976563 95.621094 143.171875 95.621094 143.339844 95.613281 143.628906 95.742188 143.894531 95.992188 144.054688 96.210938 144.183594 96.601563 144.339844 97.078125 144.429688 97.113281 144.417969 97.207031 144.453125 97.285156 144.460938 97.332031 144.46875 97.785156 144.492188 98.550781 144.527344 98.425781 143.804688 98.21875 143.238281 97.875 142.757813 97.511719 142.242188 97.175781 142.035156 96.789063 142.035156zM96.738281 140.242188zM96.410156 148.9375zM96.871094 138.429688L96.871094 138.429688M87.308594 145.558594C86.253906 145.558594 85.449219 145.371094 84.882813 144.992188 84.289063 144.601563 84.035156 144.039063 84.035156 143.277344 84.023438 142.71875 84.097656 142.230469 84.21875 141.804688L84.695313 141.804688C84.65625 141.824219 84.675781 141.929688 84.664063 142.082031 84.632813 142.222656 84.648438 142.355469 84.648438 142.464844 84.632813 142.984375 84.746094 143.386719 84.945313 143.667969 85.125 143.949219 85.453125 144.167969 85.882813 144.316406 86.285156 144.445313 86.882813 144.539063 87.589844 144.539063 88.390625 144.511719 89.234375 144.453125 90.027344 144.285156 90.8125 144.105469 91.527344 143.882813 92.140625 143.589844 92.03125 143.210938 91.882813 142.730469 91.65625 142.117188 91.46875 141.644531 91.402344 141.367188 91.402344 141.222656 91.402344 141.007813 91.476563 140.832031 91.628906 140.632813 91.773438 140.410156 92 140.253906 92.285156 140.089844 92.296875 140.339844 92.371094 140.609375 92.429688 140.871094 92.476563 141.125 92.539063 141.378906 92.59375 141.628906 92.613281 141.855469 92.6875 142.117188 92.726563 142.347656 92.753906 142.550781 92.78125 142.796875 92.78125 143.003906 92.753906 143.296875 92.628906 143.765625 92.316406 144.363281 91.722656 144.742188 91.011719 145.035156 90.160156 145.246094 89.292969 145.425781 88.363281 145.558594 87.308594 145.558594zM87.992188 140.222656zM88.164063 145.953125zM88.164063 146.253906zM89.023438 147.277344C88.804688 147.570313 88.527344 147.902344 88.160156 148.257813 87.757813 147.925781 87.457031 147.664063 87.199219 147.378906 87.566406 146.980469 87.910156 146.660156 88.132813 146.398438 88.429688 146.722656 88.738281 147.027344 89.023438 147.277344zM88.128906 147.378906zM88.132813 146.269531zM88.160156 148.386719zM88.132813 146.074219L88.132813 146.074219" />
</svg>